<?xml version="1.0" standalone="no"?>
<!DOCTYPE svg PUBLIC "-//W3C//DTD SVG 20010904//EN"
 "http://www.w3.org/TR/2001/REC-SVG-20010904/DTD/svg10.dtd">
<svg version="1.0" xmlns="http://www.w3.org/2000/svg"
 width="500.000000pt" height="500.000000pt" viewBox="0 0 500.000000 500.000000"
 preserveAspectRatio="xMidYMid meet">

<g transform="translate(0.000000,500.000000) scale(0.100000,-0.100000)"
fill="#000000" stroke="none">
<path d="M2170 4860 c-874 -124 -1608 -725 -1899 -1554 -245 -700 -149 -1481
257 -2089 448 -670 1169 -1058 1967 -1059 391 0 740 83 1081 258 423 217 756
540 993 962 130 233 217 487 267 782 25 149 30 477 10 641 -58 458 -228 858
-520 1219 -162 200 -429 427 -646 547 -30 17 -73 41 -95 53 -119 66 -329 146
-505 191 -264 68 -635 88 -910 49z m47 -100 c62 -37 67 -91 13 -132 l-30 -21
30 -19 c79 -47 56 -161 -36 -186 -43 -12 -66 -4 -62 21 4 28 24 33 31 6 8 -30
29 -19 40 21 12 49 0 117 -25 134 l-20 14 21 21 c23 23 27 61 10 94 -17 31
-28 37 -78 37 -98 0 -184 -109 -120 -154 21 -14 21 -14 -6 -32 -26 -17 -28
-17 -41 1 -31 42 -9 115 48 158 72 54 171 71 225 37z m443 -27 c0 -19 -25 -43
-45 -43 -30 0 -39 14 -26 38 7 14 18 18 40 14 17 -2 31 -6 31 -9z m-528 -125
c-4 -131 -24 -188 -81 -225 -77 -52 -184 -5 -121 52 23 21 37 13 42 -25 5 -36
42 -39 64 -4 13 20 19 56 23 140 6 108 7 114 35 143 17 17 32 31 35 31 3 0 5
-51 3 -112z m266 -3 c-2 -19 0 -35 5 -35 5 0 24 16 43 35 18 19 35 35 37 35 3
0 -3 -28 -14 -62 -32 -106 -22 -138 30 -96 18 15 35 45 48 83 15 47 25 62 46
69 15 5 29 7 33 4 3 -3 -4 -36 -15 -73 -24 -78 -26 -95 -8 -95 30 0 63 26 82
64 11 23 35 51 54 63 35 24 85 30 96 13 3 -5 19 -10 36 -10 16 0 29 -3 29 -7
0 -5 -12 -43 -26 -86 -14 -43 -24 -81 -21 -84 3 -3 22 5 41 17 21 12 36 17 36
10 0 -6 -20 -20 -45 -31 -25 -11 -50 -29 -56 -41 -6 -11 -29 -40 -50 -63 l-40
-43 63 -7 c72 -8 263 -62 357 -100 353 -144 654 -400 853 -723 219 -356 304
-799 233 -1214 -124 -728 -665 -1289 -1393 -1445 -117 -25 -145 -28 -352 -28
-207 0 -235 3 -350 27 -365 79 -641 229 -900 488 -226 225 -374 474 -456 767
-232 828 165 1707 939 2079 242 116 448 164 740 171 177 5 187 6 187 25 0 35
19 56 67 74 49 18 63 29 63 51 0 8 -13 5 -36 -9 -44 -26 -84 -14 -84 27 0 32
-5 32 -47 -6 -39 -33 -70 -35 -87 -4 -6 11 -12 22 -13 24 -1 2 -16 -8 -33 -22
-39 -33 -67 -42 -85 -27 -19 16 -19 67 0 100 8 14 14 28 15 32 0 16 -39 -9
-65 -40 -33 -39 -47 -35 -16 4 15 19 18 31 11 38 -24 24 -2 86 31 86 18 0 21
-5 17 -35z m-810 -36 c8 -16 10 -42 6 -79 -6 -49 -5 -54 9 -42 21 18 67 12 81
-10 8 -13 5 -24 -12 -47 l-21 -29 28 -31 c16 -17 32 -31 35 -31 4 0 15 15 26
33 23 37 26 22 6 -26 -32 -77 -78 -89 -104 -27 -11 25 -24 40 -34 40 -24 0
-22 9 7 32 44 34 24 84 -24 59 -33 -18 -37 -72 -11 -143 21 -59 22 -62 4 -75
-26 -19 -28 -18 -53 35 -33 72 -51 149 -51 227 0 66 1 71 37 107 41 42 52 43
71 7z m1544 -29 c10 -16 19 -18 51 -13 l38 6 -40 -64 c-45 -71 -53 -109 -22
-109 11 0 23 5 26 10 7 12 25 13 25 2 0 -4 -21 -18 -46 -30 -66 -32 -91 -21
-86 41 2 22 0 21 -40 -3 -44 -27 -74 -25 -94 5 -20 31 -11 75 24 117 47 56
140 78 164 38z m455 -8 c9 -6 5 -17 -16 -42 -89 -110 -161 -213 -161 -231 0
-19 4 -21 38 -15 34 6 36 5 18 -9 -26 -20 -86 -30 -105 -18 -10 7 -15 22 -13
42 2 32 -6 39 -25 20 -5 -5 -30 -9 -54 -7 -37 3 -45 7 -53 31 -30 85 139 191
206 130 13 -11 22 -14 26 -7 62 96 104 128 139 106z m-2211 -236 c3 -7 21 -22
40 -32 40 -22 55 -60 43 -112 -15 -69 -99 -116 -99 -56 0 23 3 25 31 19 35 -8
49 4 49 42 0 16 -13 31 -41 49 -22 14 -42 24 -44 22 -1 -2 -10 -47 -19 -101
-19 -115 -28 -137 -60 -137 -29 0 -48 21 -80 90 -30 65 -31 78 -8 108 l18 23
30 -73 c22 -54 36 -74 51 -76 25 -4 33 24 40 143 4 76 14 105 35 105 5 0 11
-6 14 -14z m2298 -7 c59 -46 13 -96 -79 -84 -52 6 -55 5 -55 -16 0 -38 28 -59
80 -59 38 0 55 7 99 40 53 39 54 39 85 23 l31 -16 -25 -16 c-106 -70 -136
-111 -81 -111 17 0 31 -4 31 -10 0 -5 -24 -10 -54 -10 -64 0 -85 17 -68 55
l12 25 -59 0 c-76 0 -111 25 -111 78 0 87 128 153 194 101z m-2504 -10 c9 -16
8 -25 -6 -40 -23 -26 -41 -24 -46 6 -4 18 0 26 13 30 11 4 19 11 19 16 0 15 9
10 20 -12z m2715 -18 c18 -13 21 -21 12 -30 -16 -16 -43 -14 -62 5 -14 15 -14
17 2 30 23 17 21 17 48 -5z m-2837 -115 c95 -50 139 -181 93 -281 -17 -39 -81
-105 -101 -105 -5 0 -16 -16 -25 -36 -11 -28 -19 -35 -37 -32 -32 4 -28 56 7
83 14 12 25 28 25 37 0 8 -22 46 -50 83 -41 56 -50 75 -50 109 0 22 4 48 10
56 10 16 10 17 33 -30 9 -19 33 -57 52 -84 26 -35 35 -59 35 -87 0 -45 10 -48
58 -19 27 17 32 25 32 57 -1 81 -95 194 -174 209 -45 8 -102 -19 -123 -59 -33
-65 -12 -147 39 -147 11 0 18 -7 18 -19 0 -48 -64 -37 -86 14 -26 64 -12 130
40 192 59 68 141 92 204 59z m2876 -51 c3 -9 -4 -21 -19 -31 -36 -23 -20 -37
36 -32 27 3 49 2 49 -2 0 -4 -31 -24 -70 -44 -50 -27 -70 -43 -70 -57 0 -10 6
-19 13 -20 6 0 23 -2 37 -4 14 -1 37 4 52 11 33 17 105 18 137 1 13 -6 33 -24
44 -39 20 -27 20 -28 1 -49 -10 -12 -38 -31 -62 -41 -49 -22 -53 -44 -12 -65
24 -12 24 -13 3 -13 -21 0 -53 24 -53 39 0 5 -18 11 -39 15 -26 4 -47 15 -61
33 -20 26 -21 37 -5 76 6 14 1 17 -33 17 -23 0 -52 4 -66 10 -52 19 -21 82 52
104 36 12 15 26 -41 27 -49 1 -50 1 -19 10 17 5 32 15 32 21 0 38 81 67 94 33z
m-3554 -1365 c11 -6 32 -31 46 -56 l27 -46 18 35 c29 56 66 80 114 74 75 -10
105 -83 72 -174 -17 -45 -86 -138 -151 -202 l-55 -55 -63 68 c-127 137 -170
225 -149 298 17 57 89 86 141 58z m4114 1 c13 -6 37 -31 52 -56 l27 -47 25 45
c28 53 65 72 116 63 84 -16 100 -114 36 -219 -34 -57 -165 -207 -180 -207 -5
0 -43 39 -85 88 -82 95 -135 188 -135 236 1 78 70 125 144 97z m-190 -1065 c9
25 34 -1 29 -29 -4 -18 6 -32 37 -61 52 -47 75 -45 75 7 0 20 3 37 7 37 9 0
28 -58 28 -86 0 -34 -36 -67 -65 -60 -23 6 -23 5 -19 -46 9 -94 -47 -146 -118
-109 -43 22 -67 57 -74 111 -5 37 -2 50 16 73 12 15 30 27 40 27 31 0 42 -25
39 -92 -3 -61 -2 -63 23 -66 38 -4 63 35 55 86 -7 39 -54 88 -92 94 -11 2 -21
12 -23 23 -2 11 -15 32 -29 47 -20 21 -24 32 -18 57 l7 31 38 -30 c32 -25 39
-28 44 -14z m-3311 -220 c68 -29 137 -122 137 -186 0 -21 -9 -39 -26 -55 -31
-29 -53 -31 -94 -10 l-30 16 0 -34 c0 -68 -61 -109 -130 -88 -67 20 -105 92
-52 99 24 4 29 -7 10 -26 -9 -9 -9 -15 0 -24 27 -27 142 37 142 78 0 23 3 24
40 18 35 -6 43 -3 70 24 41 41 39 72 -7 120 -50 52 -111 72 -148 48 -14 -9
-25 -25 -25 -36 0 -22 -20 -26 -38 -8 -53 53 62 102 151 64z m-274 -80 l24
-13 -26 -18 c-45 -29 -30 -75 24 -75 15 0 67 20 115 45 92 47 125 53 169 33
28 -12 33 -28 10 -28 -9 0 -55 -20 -104 -45 -126 -64 -191 -60 -255 15 -30 36
-33 62 -10 84 18 19 22 19 53 2z m3443 -53 c13 -16 35 -45 48 -66 26 -45 43
-43 51 4 4 27 7 30 13 16 9 -20 -1 -86 -16 -104 -24 -30 -59 -7 -119 78 -10
14 -20 19 -28 15 -20 -13 -4 -75 31 -125 29 -41 30 -45 16 -73 l-14 -31 -53
72 c-29 39 -57 71 -62 71 -13 0 -11 -77 2 -103 6 -12 23 -34 36 -48 21 -23 23
-30 14 -48 -7 -12 -15 -21 -19 -21 -13 0 -88 83 -111 124 -20 36 -21 40 -5 63
l16 25 19 -31 c25 -41 33 -39 26 7 -13 78 21 125 64 86 18 -17 19 -16 19 30 0
52 13 86 33 86 8 0 25 -12 39 -27z m-3069 -188 c4 -8 -5 -22 -21 -34 l-27 -19
28 -7 c15 -4 41 -5 57 -1 47 9 35 -9 -25 -39 -85 -44 -110 -85 -50 -85 13 0
27 -5 31 -11 11 -18 -104 -5 -123 13 -25 26 -7 57 49 83 41 19 47 25 33 33
-10 5 -38 8 -64 6 l-46 -4 37 11 c24 7 35 15 32 24 -7 16 33 45 62 45 12 0 24
-7 27 -15z m231 -74 c10 -11 15 -25 11 -30 -10 -17 -40 -13 -59 8 -17 18 -17
20 1 30 25 14 27 14 47 -8z m2571 -64 c23 -55 36 -72 50 -72 14 0 21 8 23 28
4 34 22 36 22 2 0 -36 -26 -94 -45 -101 -22 -9 -53 23 -67 68 -18 62 -38 43
-38 -36 0 -53 -25 -140 -46 -157 -13 -10 -20 -10 -45 5 -28 17 -29 17 -29 -4
0 -32 -27 -78 -51 -85 -13 -4 -27 -1 -40 11 -18 17 -20 16 -42 -4 -13 -12 -30
-22 -39 -22 -8 0 -19 -14 -24 -32 -6 -20 -22 -39 -41 -51 -29 -16 -34 -17 -60
-3 -28 14 -30 14 -56 -19 -22 -28 -27 -44 -27 -90 0 -51 -3 -60 -34 -91 -76
-76 -131 -9 -61 74 16 19 25 42 25 63 l0 34 -21 -32 c-11 -17 -36 -39 -55 -48
-33 -16 -37 -15 -72 2 -116 59 -106 268 16 360 95 72 199 14 170 -94 -15 -57
-88 -94 -118 -58 -17 20 -3 40 17 23 39 -32 73 84 36 124 -32 35 -78 19 -114
-39 -31 -49 -34 -170 -6 -221 37 -68 106 -61 142 15 16 34 49 63 70 63 3 0 5
-21 5 -47 l0 -48 20 25 c15 21 18 35 13 86 -4 44 -1 68 11 91 19 37 62 73 87
73 22 0 46 -43 55 -99 5 -31 11 -41 25 -41 36 0 44 41 20 106 l-22 58 24 24
25 24 21 -64 c26 -78 43 -103 63 -95 26 9 28 58 6 129 -21 65 -21 68 -3 88 24
27 31 25 40 -7 15 -62 48 -123 65 -123 21 0 26 11 35 74 7 42 5 46 -18 55 -13
5 -27 17 -31 26 -20 53 13 86 45 44 l18 -24 9 26 c6 14 8 37 5 52 -10 50 12
27 42 -46z m-2660 1 c14 -6 25 -14 25 -18 0 -4 -29 -26 -65 -49 -36 -22 -65
-47 -65 -55 0 -20 49 -32 69 -17 37 27 98 51 132 51 33 0 79 -28 79 -50 0 -4
12 -12 26 -17 25 -8 24 -9 -42 -73 l-67 -65 43 -3 c31 -2 46 1 52 12 12 22 68
53 109 60 43 8 85 -8 92 -35 4 -14 14 -19 42 -19 l37 0 -56 -61 c-62 -66 -72
-99 -31 -99 16 0 42 15 68 39 47 42 96 71 124 71 10 0 29 -7 42 -16 19 -14 25
-14 32 -3 5 8 23 38 41 67 26 41 38 52 58 52 15 0 29 -3 33 -6 3 -3 -17 -43
-46 -88 -104 -165 -126 -216 -92 -216 29 0 62 22 78 53 45 83 177 106 177 32
0 -31 -51 -65 -97 -65 -28 0 -33 -4 -33 -24 0 -45 42 -60 99 -37 25 11 38 28
61 77 26 58 31 64 59 64 17 0 31 -2 31 -4 0 -2 -13 -33 -30 -68 -16 -34 -30
-69 -30 -76 0 -24 28 -23 69 2 39 25 41 28 35 64 -5 30 -2 41 15 56 30 27 52
15 44 -25 -6 -30 -5 -31 18 -19 13 7 32 22 41 34 29 36 31 10 4 -50 -30 -64
-34 -104 -11 -104 30 0 63 31 69 65 9 45 68 103 114 111 66 13 84 -20 59 -106
-14 -47 -14 -50 5 -56 28 -8 63 27 100 104 36 72 78 107 78 65 0 -10 9 -31 20
-48 32 -49 26 -91 -19 -136 -39 -40 -76 -50 -99 -27 -8 8 -8 17 0 32 16 31 16
31 37 5 16 -20 23 -22 38 -13 29 18 28 61 -2 100 l-27 36 -33 -59 c-33 -60
-67 -87 -98 -77 -10 3 -30 -5 -48 -20 -42 -35 -82 -34 -110 3 l-21 29 -50 -31
c-38 -24 -53 -29 -66 -20 -23 14 -26 55 -8 92 20 38 20 41 -2 41 -9 0 -22 -8
-29 -19 -13 -21 -94 -78 -130 -92 -27 -10 -53 11 -53 45 l0 23 -47 -24 c-33
-17 -57 -22 -77 -18 -32 6 -66 31 -66 49 -1 31 -17 38 -49 21 -18 -9 -44 -15
-59 -13 -22 2 -28 9 -30 36 -4 36 -7 37 -42 17 -31 -18 -72 -19 -88 -3 -7 7
-12 25 -12 40 0 31 -8 33 -59 18 -50 -14 -74 2 -69 46 3 28 1 33 -11 28 -73
-29 -114 -18 -119 33 -3 29 -6 31 -49 35 -35 3 -59 -3 -101 -24 -62 -32 -98
-35 -130 -12 -27 19 -28 45 -2 69 16 14 31 17 79 12 45 -4 63 -1 72 9 9 12 5
14 -29 14 -48 0 -67 19 -58 60 l6 30 -53 0 c-52 0 -77 12 -77 36 0 21 51 75
99 105 54 34 44 32 76 17z m1045 -364 c0 -13 -22 -24 -50 -24 -27 0 -32 13
-14 38 12 18 18 20 39 10 14 -6 25 -17 25 -24z"/>
<path d="M2760 4568 c-40 -65 -40 -113 0 -113 20 0 30 11 54 57 32 64 29 88
-9 88 -18 0 -31 -10 -45 -32z"/>
<path d="M2713 4365 c-47 -20 -57 -75 -13 -75 18 0 50 37 63 73 8 21 -6 21
-50 2z"/>
<path d="M2772 3405 c-11 -13 -25 -37 -31 -54 -9 -21 -23 -31 -49 -38 -21 -5
-42 -8 -47 -6 -6 1 -8 25 -7 53 4 45 2 50 -21 55 -39 10 -58 -6 -138 -121 -87
-125 -146 -194 -166 -194 -8 0 -34 14 -58 31 -48 35 -75 33 -101 -7 -13 -19
-14 -30 -6 -54 8 -21 8 -39 1 -60 -8 -20 -7 -45 1 -83 9 -47 8 -59 -9 -100
-11 -26 -26 -47 -34 -47 -24 0 -116 -65 -142 -100 -33 -44 -33 -95 1 -168 15
-31 68 -149 119 -262 183 -404 207 -455 223 -473 14 -16 25 -18 70 -12 l52 6
15 -38 c34 -84 57 -96 139 -70 50 16 58 16 92 2 36 -15 36 -15 30 8 -3 12 -6
26 -6 31 0 5 -26 5 -57 2 -32 -4 -76 -8 -98 -9 -38 -2 -40 0 -55 40 -12 37
-17 42 -37 37 -17 -5 -23 -2 -23 10 0 13 -9 16 -40 14 -22 -1 -45 3 -50 8 -5
5 -80 165 -165 354 -109 242 -163 352 -182 367 -21 17 -24 25 -15 35 6 8 9 23
6 35 -6 22 20 83 36 83 6 0 10 -7 10 -15 0 -9 10 -26 23 -38 13 -12 26 -29 29
-38 5 -12 18 -15 66 -11 34 2 68 -1 81 -7 11 -7 37 -43 56 -81 l35 -70 113 0
c135 0 154 -9 159 -73 3 -41 4 -42 41 -45 31 -3 51 5 105 40 l67 43 105 0
c101 0 107 -1 155 -32 84 -55 111 -66 139 -59 23 6 26 11 26 51 0 40 3 47 28
56 15 6 85 12 156 13 l129 1 17 50 c19 57 44 76 126 94 l57 13 -7 70 -6 70 30
-22 c40 -29 64 -65 57 -89 -3 -11 1 -22 9 -25 20 -8 29 38 14 73 -14 34 -60
79 -116 114 l-41 26 -5 138 c-7 171 -14 193 -66 193 -25 0 -43 7 -55 20 -12
14 -29 20 -57 20 -38 0 -40 2 -40 30 0 79 -58 117 -99 64 l-20 -25 -66 31 -67
31 21 23 c25 26 27 68 6 86 -20 17 -67 8 -165 -29 -111 -43 -210 -43 -210 1 0
57 -53 78 -88 33z m78 -52 c0 -23 -28 -83 -39 -83 -15 0 -14 6 5 42 12 23 13
36 6 53 -6 13 -8 26 -4 30 8 8 32 -24 32 -42z m-235 -30 c-4 -11 -9 -13 -16
-6 -6 6 -6 19 2 39 12 28 13 28 17 6 2 -13 1 -31 -3 -39z m610 28 c-6 -11 -93
-26 -101 -18 -15 15 12 27 57 27 29 0 48 -4 44 -9z m-635 -61 c0 -5 -4 -10
-10 -10 -5 0 -10 5 -10 10 0 6 5 10 10 10 6 0 10 -4 10 -10z m655 -62 c7 -27
-18 -105 -31 -99 -5 1 -7 8 -5 15 3 6 7 32 9 59 4 50 18 62 27 25z m188 8 c3
-8 3 -17 0 -20 -7 -7 -33 13 -33 25 0 15 27 10 33 -5z m-623 0 c0 -3 -4 -8
-10 -11 -5 -3 -10 -1 -10 4 0 6 5 11 10 11 6 0 10 -2 10 -4z m180 -35 c0 -25
-39 -74 -40 -49 0 25 18 68 30 68 5 0 10 -9 10 -19z m338 -23 c-3 -23 -48 -41
-48 -20 0 24 14 42 32 42 14 0 19 -6 16 -22z m-239 3 c12 -8 13 -16 2 -51 -12
-40 -13 -41 -44 -34 -18 3 -33 7 -34 8 -2 2 5 21 14 44 16 42 33 51 62 33z
m351 -1 c0 -5 -4 -10 -10 -10 -5 0 -10 5 -10 10 0 6 5 10 10 10 6 0 10 -4 10
-10z m-875 -30 c3 -5 1 -10 -4 -10 -6 0 -11 5 -11 10 0 6 2 10 4 10 3 0 8 -4
11 -10z m385 -40 c0 -5 -2 -10 -4 -10 -3 0 -8 5 -11 10 -3 6 -1 10 4 10 6 0
11 -4 11 -10z m485 0 c5 -8 -5 -12 -68 -25 -11 -2 -25 -1 -33 2 -26 10 -14 22
24 25 20 2 45 4 54 5 10 1 20 -2 23 -7z m-871 -9 c4 -5 3 -17 0 -26 -5 -13 -8
-14 -15 -3 -5 7 -9 19 -9 26 0 14 16 16 24 3z m644 -22 c-2 -6 -8 -10 -13 -10
-5 0 -11 4 -13 10 -2 6 4 11 13 11 9 0 15 -5 13 -11z m456 -83 c0 -49 -7 -77
-18 -65 -2 2 -6 37 -8 77 -5 66 -4 72 10 59 9 -10 15 -36 16 -71z m-655 13 c6
-18 11 -39 11 -48 0 -27 -29 10 -36 47 -8 42 10 42 25 1z m-309 -43 c9 -12 9
-16 1 -16 -22 0 -51 20 -51 36 0 17 28 6 50 -20z m834 19 c10 -27 -13 -64 -40
-65 -10 0 -9 32 1 68 6 17 32 15 39 -3z m-215 -11 c9 -8 -10 -17 -51 -25 -46
-8 -62 -1 -53 23 5 12 17 14 53 10 26 -2 49 -6 51 -8z m-575 -55 c-3 -5 -10
-7 -15 -3 -5 3 -7 10 -3 15 3 5 10 7 15 3 5 -3 7 -10 3 -15z m282 -16 c-10
-10 -19 5 -10 18 6 11 8 11 12 0 2 -7 1 -15 -2 -18z m234 -13 c0 -5 -19 -10
-42 -10 -32 0 -39 3 -28 10 20 13 70 13 70 0z m50 0 c0 -5 -2 -10 -4 -10 -3 0
-8 5 -11 10 -3 6 -1 10 4 10 6 0 11 -4 11 -10z m164 -111 c10 -49 16 -92 14
-94 -2 -2 -23 -7 -46 -11 l-41 -6 9 33 c6 19 10 59 10 89 0 49 12 80 30 80 3
0 14 -41 24 -91z m-794 46 c0 -8 -4 -15 -10 -15 -5 0 -10 7 -10 15 0 8 5 15
10 15 6 0 10 -7 10 -15z m900 -5 c6 -10 13 -41 16 -67 6 -40 4 -46 -7 -35 -13
12 -39 84 -39 110 0 19 18 14 30 -8z m-210 -35 c0 -8 -4 -15 -10 -15 -5 0 -10
7 -10 15 0 8 5 15 10 15 6 0 10 -7 10 -15z m-680 -5 c0 -5 -5 -10 -11 -10 -5
0 -7 5 -4 10 3 6 8 10 11 10 2 0 4 -4 4 -10z m550 -8 c0 -8 -43 -32 -55 -32
-2 0 -9 9 -15 20 -10 18 -8 20 30 20 22 0 40 -4 40 -8z m-131 -98 c24 -30 27
-54 8 -54 -11 0 -47 58 -47 75 0 13 21 2 39 -21z m496 6 c3 -5 1 -10 -4 -10
-6 0 -11 5 -11 10 0 6 2 10 4 10 3 0 8 -4 11 -10z m-274 -19 c13 -11 21 -23
16 -27 -9 -9 -54 14 -61 32 -8 20 18 17 45 -5z m49 -51 c0 -5 -2 -10 -4 -10
-3 0 -8 5 -11 10 -3 6 -1 10 4 10 6 0 11 -4 11 -10z m-406 -19 c7 -11 -22 -23
-35 -15 -5 3 -9 9 -9 15 0 12 37 12 44 0z"/>
<path d="M1372 3150 c-58 -9 -93 -31 -171 -111 -74 -75 -95 -125 -99 -239 -5
-116 34 -390 78 -562 70 -270 193 -575 291 -723 93 -141 128 -160 288 -161
l113 0 34 -46 c22 -31 43 -48 63 -53 16 -3 35 -12 41 -20 6 -8 40 -23 75 -35
42 -14 71 -31 83 -47 13 -17 25 -24 36 -20 21 8 20 36 -4 67 -11 14 -20 35
-20 48 0 35 41 26 51 -11 10 -37 27 -57 50 -57 30 0 29 43 -2 76 -23 25 -24
42 -3 72 21 31 31 28 54 -18 17 -33 26 -40 50 -40 23 0 31 5 36 25 7 27 -16
72 -42 82 -20 7 -18 23 4 23 9 0 28 -12 41 -25 23 -24 53 -31 85 -19 9 3 16
11 16 17 0 16 -51 67 -67 67 -18 0 -17 26 1 33 8 3 36 -5 61 -19 55 -29 55
-29 55 -5 0 11 -11 28 -25 39 -31 24 -34 62 -5 62 11 0 27 -11 36 -25 19 -29
61 -34 71 -9 9 24 -8 46 -52 68 -35 16 -37 19 -20 28 14 8 28 5 61 -13 50 -27
59 -23 41 14 -16 35 -28 39 -88 25 -38 -9 -53 -18 -60 -35 -5 -13 -16 -26 -24
-29 -9 -4 -15 -19 -15 -40 0 -30 -3 -34 -26 -34 -15 0 -37 -12 -53 -28 -15
-15 -40 -33 -55 -40 -14 -6 -29 -18 -32 -26 -3 -8 -21 -20 -39 -26 -21 -7 -37
-21 -45 -39 -8 -21 -21 -31 -45 -35 -35 -7 -45 -21 -45 -63 0 -24 -2 -25 -37
-18 -69 12 -103 34 -103 66 0 15 -9 44 -21 63 -26 44 -19 66 31 106 22 17 44
46 50 66 11 31 9 41 -14 87 -32 64 -180 232 -232 264 -75 45 -104 48 -166 19
-30 -14 -58 -26 -62 -26 -11 0 -90 173 -124 271 -17 47 -41 137 -53 199 -19
98 -21 121 -11 168 14 66 38 94 112 132 30 15 63 36 72 47 70 77 62 264 -16
397 -45 76 -72 85 -204 66z m150 -19 c58 -46 108 -245 87 -342 -13 -56 -55
-106 -108 -126 l-44 -17 -35 40 c-90 104 -126 235 -97 359 17 76 25 85 72 85
31 0 31 -1 22 -32 -12 -42 -12 -118 0 -118 5 0 12 24 15 53 7 52 37 117 55
117 4 0 19 -9 33 -19z m-217 -48 c-14 -39 -17 -145 -5 -205 14 -71 46 -132
101 -197 l37 -44 -18 -31 c-10 -17 -25 -55 -34 -84 -14 -48 -14 -62 0 -140 30
-176 86 -351 147 -460 16 -29 27 -55 24 -58 -9 -10 -74 24 -90 47 -22 31 -34
16 -13 -16 19 -29 53 -45 95 -45 31 0 51 -16 51 -42 0 -24 43 -108 90 -178 38
-56 123 -142 172 -174 l28 -18 -31 -30 c-28 -29 -34 -30 -110 -30 -101 1 -169
30 -221 93 -42 51 -151 264 -201 394 -134 345 -197 629 -198 898 0 153 19 201
120 294 49 46 67 54 56 26z m474 -1208 c61 -31 212 -191 247 -262 30 -61 27
-79 -23 -134 -52 -57 -77 -51 -178 40 -103 94 -184 217 -198 301 -6 33 -4 36
36 57 54 28 59 28 116 -2z m602 -568 c-13 -13 -31 1 -31 25 0 21 1 21 20 3 13
-12 17 -22 11 -28z"/>
<path d="M1471 3077 c-44 -53 0 -275 62 -311 56 -33 64 129 13 242 -31 67 -56
91 -75 69z"/>
<path d="M1726 1848 c31 -104 139 -239 237 -297 43 -26 59 -24 64 8 7 48 -81
158 -206 259 -71 57 -107 68 -95 30z"/>
<path d="M3807 2546 c-9 -7 -17 -18 -17 -23 0 -11 -249 -614 -285 -690 -24
-51 -26 -53 -65 -53 -33 0 -40 -3 -40 -20 0 -29 59 -28 87 3 22 24 67 108 88
166 8 20 37 92 65 161 142 340 191 463 188 466 -2 1 -11 -3 -21 -10z"/>
<path d="M3338 1725 l-16 -30 -98 0 c-69 0 -98 -4 -101 -12 -3 -7 -13 -13 -24
-13 -10 0 -19 -7 -19 -15 0 -23 -27 -18 -87 16 -62 35 -102 35 -150 0 -16 -12
-48 -25 -73 -29 -29 -5 -45 -13 -45 -22 0 -26 34 -23 101 9 37 17 74 31 83 31
9 -1 41 -14 71 -30 69 -38 89 -38 123 1 l27 31 96 -4 c94 -3 97 -2 116 23 11
15 18 37 16 50 -3 24 -4 24 -20 -6z"/>
<path d="M1539 4543 c-10 -28 -4 -115 11 -142 8 -15 14 4 25 81 11 76 -14 119
-36 61z"/>
<path d="M3036 4500 c-45 -50 -51 -100 -11 -100 14 0 37 11 51 25 29 29 58 91
49 105 -14 22 -54 9 -89 -30z"/>
<path d="M3345 4412 c-54 -34 -84 -102 -51 -115 37 -14 131 72 124 112 -5 23
-39 24 -73 3z"/>
<path d="M3588 4269 c-37 -27 -36 -49 1 -49 37 0 77 31 68 53 -9 23 -36 21
-69 -4z"/>
<path d="M4035 3889 c-74 -21 -112 -100 -52 -107 15 -2 27 1 27 7 0 21 52 70
82 76 30 7 31 8 13 21 -21 16 -27 16 -70 3z"/>
<path d="M4210 1466 c0 -24 34 -76 50 -76 16 0 21 39 9 62 -23 43 -59 52 -59
14z"/>
<path d="M3420 745 c-28 -33 -1 -155 37 -169 19 -8 43 11 43 31 0 9 -14 31
-31 51 -26 29 -30 41 -26 69 6 35 -3 42 -23 18z"/>
<path d="M3236 385 c-29 -44 -15 -92 18 -59 17 16 22 84 7 84 -5 0 -16 -11
-25 -25z"/>
<path d="M1302 864 c-39 -20 -76 -69 -68 -89 12 -31 79 -10 126 39 19 21 22
30 14 44 -15 23 -33 25 -72 6z"/>
<path d="M1510 715 c-19 -14 -41 -37 -48 -52 -12 -22 -12 -28 1 -41 13 -13 20
-13 46 -2 39 16 93 76 89 98 -5 27 -49 25 -88 -3z"/>
<path d="M1128 700 c-22 -14 -23 -49 -2 -57 15 -6 41 5 78 32 11 8 18 17 15
19 -11 11 -76 15 -91 6z"/>
<path d="M1759 600 c-57 -60 -62 -109 -12 -110 19 0 82 67 89 95 16 65 -23 72
-77 15z"/>
<path d="M2021 542 c-30 -29 -41 -62 -22 -62 24 0 61 21 71 41 10 17 9 24 -3
37 -14 13 -19 12 -46 -16z"/>
<path d="M2574 518 c-44 -21 -67 -119 -37 -156 30 -38 76 -5 53 38 -15 28 -12
78 6 105 17 27 12 30 -22 13z"/>
</g>
</svg>
